<svg width="390" height="600" viewBox="0 0 390 600" xmlns="http://www.w3.org/2000/svg">
  <rect width="390" height="600" fill="#0C1A2E"/>
  <polygon points="200,0 390,0 390,600 300,600" fill="#132640" opacity="0.8"/>
  <polygon points="300,0 390,0 390,260" fill="#1A3352" opacity="0.5"/>
  <circle cx="340" cy="80" r="140" fill="none" stroke="#1D9E75" stroke-width="1" opacity="0.3"/>
  <circle cx="340" cy="80" r="90" fill="none" stroke="#1D9E75" stroke-width="0.5" opacity="0.2"/>
  <!-- Dot grid -->
  <g opacity="0.15" fill="#1D9E75">
    <circle cx="290" cy="300" r="4"/><circle cx="320" cy="300" r="4"/><circle cx="350" cy="300" r="4"/>
    <circle cx="290" cy="330" r="4"/><circle cx="320" cy="330" r="4"/><circle cx="350" cy="330" r="4"/>
    <circle cx="290" cy="360" r="4"/><circle cx="320" cy="360" r="4"/><circle cx="350" cy="360" r="4"/>
    <circle cx="290" cy="390" r="4"/><circle cx="320" cy="390" r="4"/><circle cx="350" cy="390" r="4"/>
  </g>
  <line x1="0" y1="560" x2="390" y2="560" stroke="#1D9E75" stroke-width="1" opacity="0.2"/>
  <!-- Tag -->
  <rect x="30" y="110" width="130" height="32" rx="4" fill="#0F6E56"/>
  <text x="95" y="132" text-anchor="middle" font-family="Arial, sans-serif" font-size="12" font-weight="700" fill="#9FE1CB" letter-spacing="2">LEADERSHIP</text>
  <!-- Title -->
  <text x="30" y="220" font-family="Arial, sans-serif" font-size="52" font-weight="700" fill="#FFFFFF">OzU</text>
  <text x="30" y="280" font-family="Arial, sans-serif" font-size="52" font-weight="700" fill="#FFFFFF">Business</text>
  <text x="30" y="340" font-family="Arial, sans-serif" font-size="52" font-weight="700" fill="#1D9E75">Club</text>
  <text x="30" y="400" font-family="Arial, sans-serif" font-size="52" font-weight="700" fill="#1D9E75">Presidency</text>
  <!-- Subtitle -->
  <text x="30" y="450" font-family="Arial, sans-serif" font-size="16" fill="#9FE1CB" opacity="0.85">Leading 100+ people · 3,000+ members</text>
  <!-- Bottom line -->
  <rect x="30" y="530" width="70" height="3" rx="2" fill="#1D9E75"/>
  <text x="115" y="534" font-family="Arial, sans-serif" font-size="13" fill="#5DCAA5" opacity="0.7">efeeryigit.com</text>
</svg>
